<svg xmlns="http://www.w3.org/2000/svg" width="40" height="40" viewBox="0 0 800 800">
  <g transform="translate(-300,-300)">
    <path d="M443.97 1150.06C435.845 1102.02 498.028 1051.45 582.859 1037.11 667.69 1022.76 743.046 1050.06 751.17 1098.1 759.295 1146.13 697.112 1196.7 612.281 1211.05 527.45 1225.4 452.095 1198.09 443.97 1150.06Z" stroke="#FFFFFF" stroke-width="4.58333" stroke-miterlimit="8" fill-rule="evenodd" fill="#FFFFFF" />
    <path d="M785.302 1140.52C777.178 1092.49 839.361 1041.92 924.192 1027.57 1009.02 1013.22 1084.38 1040.53 1092.5 1088.56 1100.63 1136.59 1038.44 1187.16 953.613 1201.51 868.782 1215.86 793.427 1188.56 785.302 1140.52Z" stroke="#FFFFFF" stroke-width="4.58333" stroke-miterlimit="8" fill="#FFFFFF" fill-rule="evenodd"/>
    <path d="M739.873 1103.69 733 689" stroke="#FFFFFF" stroke-width="27.5" stroke-miterlimit="8" fill="#FFFFFF" fill-rule="evenodd"/>
    <path d="M1080.87 1102.69 1074 688" stroke="#FFFFFF" stroke-width="27.5" stroke-miterlimit="8" fill="#FFFFFF" fill-rule="evenodd"/>
    <rect x="721.5" y="601.5" width="365" height="103" stroke="#FFFFFF" stroke-width="4.58333" stroke-miterlimit="8" fill="#FFFFFF" />
  </g>
</svg>