<svg width="239" height="272" xmlns="http://www.w3.org/2000/svg" xmlns:xlink="http://www.w3.org/1999/xlink" xml:space="preserve" overflow="hidden">
  <g transform="scale(0.33) translate(-603 -185)">
    <path d="M670.5 257.5 726.5 257.5 782.5 320.5 726.5 383.5 670.5 383.5 726.5 320.5Z" stroke="#FFFFFF" stroke-width="4.58333" stroke-miterlimit="8" fill-rule="evenodd"/>
    <path d="M826.963 298.364C843.552 321.866 843.789 352.032 827.492 365.741 820.888 371.296 812.22 373.496 802.876 371.989 806.01 393.401 793.874 409.089 775.77 407.03 772.604 406.67 769.375 405.769 766.185 404.356 769.124 421.912 759.553 435.144 744.807 433.91 740.726 433.569 736.512 432.118 732.49 429.669 731.737 448.273 717.592 458.533 700.897 452.584 693.88 450.084 687.192 444.941 681.98 438.038 665.01 440.749 645.53 425.635 638.47 404.28 637.876 402.484 637.383 400.675 636.993 398.866 614.427 385.231 600.936 355.008 606.861 331.359 608.705 323.998 612.329 317.855 617.383 313.523 605.319 291.935 608.385 267.341 624.231 258.591 629.525 255.668 635.832 254.797 642.452 256.075 634.112 228.934 644.967 204.773 666.698 202.109 675.805 200.993 685.843 203.857 695.099 210.213 704.695 185.15 732.603 179.896 757.434 198.476 757.747 198.71 758.058 198.947 758.369 199.188 769.088 190.622 786.284 196.075 796.776 211.367 802.368 219.518 805.159 229.267 804.404 238.015 819.267 240.449 832.914 256.542 834.887 273.961 836.024 284.009 833.008 292.788 826.765 297.596Z" stroke="#FFFFFF" stroke-width="4.58333" stroke-miterlimit="8" fill="none" fill-rule="evenodd"/>
    <path d="M789.925 242.105C794.018 239.17 799.156 238.079 804.648 238.978M754.435 205.152C755.647 203.206 757.124 201.53 758.828 200.168M695.6 211.068C698.45 213.025 701.19 215.289 703.774 217.821M646.903 267.045C645.28 263.729 643.925 260.31 642.86 256.845M653.868 340.276C640.263 339.298 626.238 329.083 617.819 314.018M637.39 399.332C636.093 393.313 635.966 387.393 637.019 382.038M682.371 438.798C680.929 436.887 679.615 434.863 678.449 432.753M732.084 420.275C732.79 423.689 733.081 427.075 732.95 430.328M764.124 397.098C765.096 399.699 765.811 402.348 766.253 404.984M802.929 372.024C799.548 371.479 796.126 370.456 792.738 368.977M821.862 291.97C823.672 293.98 825.377 296.118 826.961 298.362" stroke="#FFFFFF" stroke-width="4.58333" stroke-miterlimit="8" fill="none" fill-rule="evenodd"/>
  </g>
</svg>