<svg width="60" height="70" viewBox="0 0 300 300" xmlns="http://www.w3.org/2000/svg" xmlns:xlink="http://www.w3.org/1999/xlink" xml:space="preserve" overflow="hidden"><g transform="translate(-1038 -232)"><rect x="1040.5" y="234.5" width="280" height="34" stroke="#FFFFFF" stroke-width="4.58333" stroke-miterlimit="8" fill="#FFFFFF"/><path d="M1040.5 294.5C1040.5 290.082 1044.08 286.5 1048.5 286.5 1052.92 286.5 1056.5 290.082 1056.5 294.5 1056.5 298.918 1052.92 302.5 1048.5 302.5 1044.08 302.5 1040.5 298.918 1040.5 294.5Z" stroke="#FFFFFF" stroke-width="4.58333" stroke-miterlimit="8" fill-rule="evenodd"/><path d="M1072.5 287.5C1072.5 283.082 1076.08 279.5 1080.5 279.5 1084.92 279.5 1088.5 283.082 1088.5 287.5 1088.5 291.918 1084.92 295.5 1080.5 295.5 1076.08 295.5 1072.5 291.918 1072.5 287.5Z" stroke="#FFFFFF" stroke-width="4.58333" stroke-miterlimit="8" fill-rule="evenodd"/><path d="M1106.5 298.5C1106.5 294.082 1110.08 290.5 1114.5 290.5 1118.92 290.5 1122.5 294.082 1122.5 298.5 1122.5 302.918 1118.92 306.5 1114.5 306.5 1110.08 306.5 1106.5 302.918 1106.5 298.5Z" stroke="#FFFFFF" stroke-width="4.58333" stroke-miterlimit="8" fill-rule="evenodd"/><path d="M1146.5 290C1146.5 285.306 1150.08 281.5 1154.5 281.5 1158.92 281.5 1162.5 285.306 1162.5 290 1162.5 294.694 1158.92 298.5 1154.5 298.5 1150.08 298.5 1146.5 294.694 1146.5 290Z" stroke="#FFFFFF" stroke-width="4.58333" stroke-miterlimit="8" fill-rule="evenodd"/><path d="M1136.5 317.5C1136.5 313.082 1140.08 309.5 1144.5 309.5 1148.92 309.5 1152.5 313.082 1152.5 317.5 1152.5 321.918 1148.92 325.5 1144.5 325.5 1140.08 325.5 1136.5 321.918 1136.5 317.5Z" stroke="#FFFFFF" stroke-width="4.58333" stroke-miterlimit="8" fill-rule="evenodd"/><path d="M1181.5 294.5C1181.5 290.082 1185.31 286.5 1190 286.5 1194.69 286.5 1198.5 290.082 1198.5 294.5 1198.5 298.918 1194.69 302.5 1190 302.5 1185.31 302.5 1181.5 298.918 1181.5 294.5Z" stroke="#FFFFFF" stroke-width="4.58333" stroke-miterlimit="8" fill-rule="evenodd"/><path d="M1202.5 317.5C1202.5 313.082 1206.31 309.5 1211 309.5 1215.69 309.5 1219.5 313.082 1219.5 317.5 1219.5 321.918 1215.69 325.5 1211 325.5 1206.31 325.5 1202.5 321.918 1202.5 317.5Z" stroke="#FFFFFF" stroke-width="4.58333" stroke-miterlimit="8" fill-rule="evenodd"/><path d="M1230.5 292.5C1230.5 288.082 1234.08 284.5 1238.5 284.5 1242.92 284.5 1246.5 288.082 1246.5 292.5 1246.5 296.918 1242.92 300.5 1238.5 300.5 1234.08 300.5 1230.5 296.918 1230.5 292.5Z" stroke="#FFFFFF" stroke-width="4.58333" stroke-miterlimit="8" fill-rule="evenodd"/><path d="M1271.5 295.5C1271.5 291.082 1275.31 287.5 1280 287.5 1284.69 287.5 1288.5 291.082 1288.5 295.5 1288.5 299.918 1284.69 303.5 1280 303.5 1275.31 303.5 1271.5 299.918 1271.5 295.5Z" stroke="#FFFFFF" stroke-width="4.58333" stroke-miterlimit="8" fill-rule="evenodd"/><path d="M1304.5 291.5C1304.5 287.082 1308.08 283.5 1312.5 283.5 1316.92 283.5 1320.5 287.082 1320.5 291.5 1320.5 295.918 1316.92 299.5 1312.5 299.5 1308.08 299.5 1304.5 295.918 1304.5 291.5Z" stroke="#FFFFFF" stroke-width="4.58333" stroke-miterlimit="8" fill-rule="evenodd"/><path d="M1258.5 317.5C1258.5 313.082 1262.08 309.5 1266.5 309.5 1270.92 309.5 1274.5 313.082 1274.5 317.5 1274.5 321.918 1270.92 325.5 1266.5 325.5 1262.08 325.5 1258.5 321.918 1258.5 317.5Z" stroke="#FFFFFF" stroke-width="4.58333" stroke-miterlimit="8" fill-rule="evenodd"/><path d="M1231.5 317.5C1231.5 313.082 1235.08 309.5 1239.5 309.5 1243.92 309.5 1247.5 313.082 1247.5 317.5 1247.5 321.918 1243.92 325.5 1239.5 325.5 1235.08 325.5 1231.5 321.918 1231.5 317.5Z" stroke="#FFFFFF" stroke-width="4.58333" stroke-miterlimit="8" fill-rule="evenodd"/><path d="M1080.5 319.5C1080.5 315.082 1084.08 311.5 1088.5 311.5 1092.92 311.5 1096.5 315.082 1096.5 319.5 1096.5 323.918 1092.92 327.5 1088.5 327.5 1084.08 327.5 1080.5 323.918 1080.5 319.5Z" stroke="#FFFFFF" stroke-width="4.58333" stroke-miterlimit="8" fill-rule="evenodd"/><path d="M1048.5 365.5C1048.5 361.082 1052.08 357.5 1056.5 357.5 1060.92 357.5 1064.5 361.082 1064.5 365.5 1064.5 369.918 1060.92 373.5 1056.5 373.5 1052.08 373.5 1048.5 369.918 1048.5 365.5Z" stroke="#FFFFFF" stroke-width="4.58333" stroke-miterlimit="8" fill-rule="evenodd"/><path d="M1114.5 370.5C1114.5 366.082 1118.08 362.5 1122.5 362.5 1126.92 362.5 1130.5 366.082 1130.5 370.5 1130.5 374.918 1126.92 378.5 1122.5 378.5 1118.08 378.5 1114.5 374.918 1114.5 370.5Z" stroke="#FFFFFF" stroke-width="4.58333" stroke-miterlimit="8" fill-rule="evenodd"/><path d="M1155.5 361.5C1155.5 357.082 1159.08 353.5 1163.5 353.5 1167.92 353.5 1171.5 357.082 1171.5 361.5 1171.5 365.918 1167.92 369.5 1163.5 369.5 1159.08 369.5 1155.5 365.918 1155.5 361.5Z" stroke="#FFFFFF" stroke-width="4.58333" stroke-miterlimit="8" fill-rule="evenodd"/><path d="M1183.5 349.5C1183.5 345.082 1187.08 341.5 1191.5 341.5 1195.92 341.5 1199.5 345.082 1199.5 349.5 1199.5 353.918 1195.92 357.5 1191.5 357.5 1187.08 357.5 1183.5 353.918 1183.5 349.5Z" stroke="#FFFFFF" stroke-width="4.58333" stroke-miterlimit="8" fill-rule="evenodd"/><path d="M1210.5 389.5C1210.5 385.082 1214.31 381.5 1219 381.5 1223.69 381.5 1227.5 385.082 1227.5 389.5 1227.5 393.918 1223.69 397.5 1219 397.5 1214.31 397.5 1210.5 393.918 1210.5 389.5Z" stroke="#FFFFFF" stroke-width="4.58333" stroke-miterlimit="8" fill-rule="evenodd"/><path d="M1242.5 347C1242.5 342.306 1246.08 338.5 1250.5 338.5 1254.92 338.5 1258.5 342.306 1258.5 347 1258.5 351.694 1254.92 355.5 1250.5 355.5 1246.08 355.5 1242.5 351.694 1242.5 347Z" stroke="#FFFFFF" stroke-width="4.58333" stroke-miterlimit="8" fill-rule="evenodd"/><path d="M1313.5 363.5C1313.5 359.082 1317.08 355.5 1321.5 355.5 1325.92 355.5 1329.5 359.082 1329.5 363.5 1329.5 367.918 1325.92 371.5 1321.5 371.5 1317.08 371.5 1313.5 367.918 1313.5 363.5Z" stroke="#FFFFFF" stroke-width="4.58333" stroke-miterlimit="8" fill-rule="evenodd"/><path d="M1238.5 372.5C1238.5 368.082 1242.08 364.5 1246.5 364.5 1250.92 364.5 1254.5 368.082 1254.5 372.5 1254.5 376.918 1250.92 380.5 1246.5 380.5 1242.08 380.5 1238.5 376.918 1238.5 372.5Z" stroke="#FFFFFF" stroke-width="4.58333" stroke-miterlimit="8" fill-rule="evenodd"/><path d="M1084.5 361C1084.5 356.305 1088.08 352.5 1092.5 352.5 1096.92 352.5 1100.5 356.305 1100.5 361 1100.5 365.694 1096.92 369.5 1092.5 369.5 1088.08 369.5 1084.5 365.694 1084.5 361Z" stroke="#FFFFFF" stroke-width="4.58333" stroke-miterlimit="8" fill-rule="evenodd"/><path d="M1091.5 402.5C1091.5 398.082 1095.31 394.5 1100 394.5 1104.69 394.5 1108.5 398.082 1108.5 402.5 1108.5 406.918 1104.69 410.5 1100 410.5 1095.31 410.5 1091.5 406.918 1091.5 402.5Z" stroke="#FFFFFF" stroke-width="4.58333" stroke-miterlimit="8" fill-rule="evenodd"/><path d="M1132.5 393.5C1132.5 389.082 1136.08 385.5 1140.5 385.5 1144.92 385.5 1148.5 389.082 1148.5 393.5 1148.5 397.918 1144.92 401.5 1140.5 401.5 1136.08 401.5 1132.5 397.918 1132.5 393.5Z" stroke="#FFFFFF" stroke-width="4.58333" stroke-miterlimit="8" fill-rule="evenodd"/><path d="M1167.5 398.5C1167.5 394.082 1171.08 390.5 1175.5 390.5 1179.92 390.5 1183.5 394.082 1183.5 398.5 1183.5 402.918 1179.92 406.5 1175.5 406.5 1171.08 406.5 1167.5 402.918 1167.5 398.5Z" stroke="#FFFFFF" stroke-width="4.58333" stroke-miterlimit="8" fill-rule="evenodd"/><path d="M1188.5 421.5C1188.5 417.082 1192.08 413.5 1196.5 413.5 1200.92 413.5 1204.5 417.082 1204.5 421.5 1204.5 425.918 1200.92 429.5 1196.5 429.5 1192.08 429.5 1188.5 425.918 1188.5 421.5Z" stroke="#FFFFFF" stroke-width="4.58333" stroke-miterlimit="8" fill-rule="evenodd"/><path d="M1296.5 326.5C1296.5 322.082 1300.08 318.5 1304.5 318.5 1308.92 318.5 1312.5 322.082 1312.5 326.5 1312.5 330.918 1308.92 334.5 1304.5 334.5 1300.08 334.5 1296.5 330.918 1296.5 326.5Z" stroke="#FFFFFF" stroke-width="4.58333" stroke-miterlimit="8" fill-rule="evenodd"/><path d="M1280.5 401C1280.5 396.306 1284.08 392.5 1288.5 392.5 1292.92 392.5 1296.5 396.306 1296.5 401 1296.5 405.694 1292.92 409.5 1288.5 409.5 1284.08 409.5 1280.5 405.694 1280.5 401Z" stroke="#FFFFFF" stroke-width="4.58333" stroke-miterlimit="8" fill-rule="evenodd"/><path d="M1173.5 322.5C1173.5 318.082 1177.31 314.5 1182 314.5 1186.69 314.5 1190.5 318.082 1190.5 322.5 1190.5 326.918 1186.69 330.5 1182 330.5 1177.31 330.5 1173.5 326.918 1173.5 322.5Z" stroke="#FFFFFF" stroke-width="4.58333" stroke-miterlimit="8" fill-rule="evenodd"/><path d="M1109.5 341.5C1109.5 337.082 1113.08 333.5 1117.5 333.5 1121.92 333.5 1125.5 337.082 1125.5 341.5 1125.5 345.918 1121.92 349.5 1117.5 349.5 1113.08 349.5 1109.5 345.918 1109.5 341.5Z" stroke="#FFFFFF" stroke-width="4.58333" stroke-miterlimit="8" fill-rule="evenodd"/><path d="M1050.5 331.5C1050.5 327.082 1054.08 323.5 1058.5 323.5 1062.92 323.5 1066.5 327.082 1066.5 331.5 1066.5 335.918 1062.92 339.5 1058.5 339.5 1054.08 339.5 1050.5 335.918 1050.5 331.5Z" stroke="#FFFFFF" stroke-width="4.58333" stroke-miterlimit="8" fill-rule="evenodd"/><path d="M1185.5 378C1185.5 373.306 1189.31 369.5 1194 369.5 1198.69 369.5 1202.5 373.306 1202.5 378 1202.5 382.694 1198.69 386.5 1194 386.5 1189.31 386.5 1185.5 382.694 1185.5 378Z" stroke="#FFFFFF" stroke-width="4.58333" stroke-miterlimit="8" fill-rule="evenodd"/><path d="M1281.5 349.5C1281.5 345.082 1285.08 341.5 1289.5 341.5 1293.92 341.5 1297.5 345.082 1297.5 349.5 1297.5 353.918 1293.92 357.5 1289.5 357.5 1285.08 357.5 1281.5 353.918 1281.5 349.5Z" stroke="#FFFFFF" stroke-width="4.58333" stroke-miterlimit="8" fill-rule="evenodd"/><path d="M1235.5 406.5C1235.5 402.082 1239.08 398.5 1243.5 398.5 1247.92 398.5 1251.5 402.082 1251.5 406.5 1251.5 410.918 1247.92 414.5 1243.5 414.5 1239.08 414.5 1235.5 410.918 1235.5 406.5Z" stroke="#FFFFFF" stroke-width="4.58333" stroke-miterlimit="8" fill-rule="evenodd"/><path d="M1154.5 334C1154.5 329.306 1158.08 325.5 1162.5 325.5 1166.92 325.5 1170.5 329.306 1170.5 334 1170.5 338.694 1166.92 342.5 1162.5 342.5 1158.08 342.5 1154.5 338.694 1154.5 334Z" stroke="#FFFFFF" stroke-width="4.58333" stroke-miterlimit="8" fill-rule="evenodd"/><path d="M1213.5 347.5C1213.5 343.082 1217.08 339.5 1221.5 339.5 1225.92 339.5 1229.5 343.082 1229.5 347.5 1229.5 351.918 1225.92 355.5 1221.5 355.5 1217.08 355.5 1213.5 351.918 1213.5 347.5Z" stroke="#FFFFFF" stroke-width="4.58333" stroke-miterlimit="8" fill-rule="evenodd"/><path d="M1267.5 377.5C1267.5 373.082 1271.08 369.5 1275.5 369.5 1279.92 369.5 1283.5 373.082 1283.5 377.5 1283.5 381.918 1279.92 385.5 1275.5 385.5 1271.08 385.5 1267.5 381.918 1267.5 377.5Z" stroke="#FFFFFF" stroke-width="4.58333" stroke-miterlimit="8" fill-rule="evenodd"/></g></svg>